<?xml version="1.0" encoding="UTF-8"?>
<svg width="20px" height="20px" viewBox="0 0 20 20" version="1.1" xmlns="http://www.w3.org/2000/svg" xmlns:xlink="http://www.w3.org/1999/xlink">
    <!-- Generator: Sketch 50.2 (55047) - http://www.bohemiancoding.com/sketch -->
    <title>Orion_export-server</title>
    <desc>Created with Sketch.</desc>
    <defs></defs>
    <g id="Page-1" stroke="none" stroke-width="1" fill="none" fill-rule="evenodd">
        <g id="RVI-001" transform="translate(-24.000000, -272.000000)" fill="#BBBDC7" fill-rule="nonzero">
            <g id="Lateral-menu">
                <g id="Câmera" transform="translate(0.000000, 114.000000)">
                    <g id="03" transform="translate(0.000000, 141.000000)">
                        <g id="Orion_export-server" transform="translate(24.000000, 17.000000)">
                            <path d="M11.7666667,8.66666667 L9.33333333,8.66666667 C8.9651435,8.66666667 8.66666667,8.36818983 8.66666667,8 C8.66666667,7.63181017 8.9651435,7.33333333 9.33333333,7.33333333 L14.6666667,7.33333333 C15.0348565,7.33333333 15.3333333,7.63181017 15.3333333,8 C16.0239014,8.07148071 16.6988669,8.2514715 17.3333333,8.53333333 L17.3333333,6 L0,6 L0,10 L9.9,10 C10.4405089,9.45103876 11.0720788,8.99991734 11.7666667,8.66666667 Z M3,9 C2.44771525,9 2,8.55228475 2,8 C2,7.44771525 2.44771525,7 3,7 C3.55228475,7 4,7.44771525 4,8 C4,8.55228475 3.55228475,9 3,9 Z M8,14.6666667 C7.99890548,13.4953793 8.30953499,12.3448996 8.9,11.3333333 L0,11.3333333 L0,15.3333333 C0,15.7015232 0.298476833,16 0.666666667,16 L8.13333333,16 C8.04422221,15.5611614 7.99955218,15.1144611 8,14.6666667 Z M3,14.3333333 C2.44771525,14.3333333 2,13.8856181 2,13.3333333 C2,12.7810486 2.44771525,12.3333333 3,12.3333333 C3.55228475,12.3333333 4,12.7810486 4,13.3333333 C4,13.8856181 3.55228475,14.3333333 3,14.3333333 Z M17.3333333,0.666666667 C17.3333333,0.298476833 17.0348565,0 16.6666667,0 L0.666666667,0 C0.298476833,0 0,0.298476833 0,0.666666667 L0,4.66666667 L17.3333333,4.66666667 L17.3333333,0.666666667 Z M3,3.66666667 C2.44771525,3.66666667 2,3.21895142 2,2.66666667 C2,2.11438192 2.44771525,1.66666667 3,1.66666667 C3.55228475,1.66666667 4,2.11438192 4,2.66666667 C4,3.21895142 3.55228475,3.66666667 3,3.66666667 Z M14.6666667,3.33333333 L9.33333333,3.33333333 C8.9651435,3.33333333 8.66666667,3.0348565 8.66666667,2.66666667 C8.66666667,2.29847683 8.9651435,2 9.33333333,2 L14.6666667,2 C15.0348565,2 15.3333333,2.29847683 15.3333333,2.66666667 C15.3333333,3.0348565 15.0348565,3.33333333 14.6666667,3.33333333 Z" id="Shape"></path>
                            <path d="M14.6666667,9.33333333 C11.721148,9.33333333 9.33333333,11.721148 9.33333333,14.6666667 C9.33333333,17.6121853 11.721148,20 14.6666667,20 C17.6121853,20 20,17.6121853 20,14.6666667 C20,11.721148 17.6121853,9.33333333 14.6666667,9.33333333 Z M17.1333333,15.8 L14.6666667,18.2666667 L12.2,15.8 C12.0009398,15.5345865 12.0273342,15.1631901 12.2619288,14.9285955 C12.4965234,14.6940008 12.8679198,14.6676065 13.1333333,14.8666667 L14,15.7333333 L14,12 C14,11.6318102 14.2984768,11.3333333 14.6666667,11.3333333 C15.0348565,11.3333333 15.3333333,11.6318102 15.3333333,12 L15.3333333,15.7333333 L16.2,14.8666667 C16.3565137,14.6579818 16.6203615,14.5597525 16.8752395,14.6152781 C17.1301175,14.6708037 17.3291963,14.8698825 17.3847219,15.1247605 C17.4402475,15.3796385 17.3420182,15.6434863 17.1333333,15.8 Z" id="Shape"></path>
                        </g>
                    </g>
                </g>
            </g>
        </g>
    </g>
</svg>