<?xml version="1.0" encoding="UTF-8"?>
<svg width="17px" height="17px" viewBox="0 0 17 17" version="1.1" xmlns="http://www.w3.org/2000/svg" xmlns:xlink="http://www.w3.org/1999/xlink">
    <!-- Generator: Sketch 50.2 (55047) - http://www.bohemiancoding.com/sketch -->
    <title>Orion_pencil</title>
    <desc>Created with Sketch.</desc>
    <defs></defs>
    <g id="Page-1" stroke="none" stroke-width="1" fill="none" fill-rule="evenodd">
        <g id="RVI-001" transform="translate(-24.000000, -438.000000)" fill="#BBBDC7" fill-rule="nonzero">
            <g id="Lateral-menu">
                <g id="Config" transform="translate(0.000000, 330.000000)">
                    <g id="02" transform="translate(0.000000, 91.000000)">
                        <g id="Orion_pencil" transform="translate(24.000000, 17.000000)">
                            <path d="M9.88842187,2.86025 L10.6682969,2.080375 L14.9188281,6.33117187 L14.1389531,7.11104687 L9.88842187,2.86025 Z M11.6383594,6.1125625 L5.48010937,12.271875 C4.72622694,13.0319707 4.72788859,14.2582626 5.48382812,15.0163125 L5.85942187,15.3919063 L13.3875,7.8625 L11.6383594,6.1125625 Z M4.73264062,15.7664375 C4.03389289,15.0665723 3.72427396,14.0676862 3.9046875,13.0953125 C3.72465357,13.1288028 3.54195001,13.145873 3.35882812,13.1463125 C2.56136945,13.1484001 1.79620522,12.8314308 1.23382812,12.2660312 L1.02451562,12.0567187 L0,17 L4.940625,15.97575 L4.73264062,15.7664375 Z M9.1375,3.6125 L1.60889062,11.1400469 L1.98448437,11.5156406 C2.74338337,12.2744829 3.97374163,12.2744829 4.73264062,11.5156406 L10.8869062,5.36110937 L9.1375,3.6125 Z" id="Shape"></path>
                            <path d="M16.9845937,2.95985938 C16.8791275,2.21781041 16.5258371,1.5332284 15.982125,1.01734375 C15.4070097,0.397460254 14.6091539,0.0314976297 13.7641562,0 C13.090501,0.00397214414 12.4472285,0.280851476 11.9812812,0.767390625 L11.4192188,1.328125 L15.6692187,5.578125 L16.23075,5.01659375 C16.7904326,4.48701616 17.0694786,3.72568679 16.9845937,2.95985938 Z" id="Shape"></path>
                        </g>
                    </g>
                </g>
            </g>
        </g>
    </g>
</svg>