<?xml version="1.0" encoding="UTF-8"?>
<svg width="92px" height="32px" viewBox="0 0 92 32" version="1.1" xmlns="http://www.w3.org/2000/svg" xmlns:xlink="http://www.w3.org/1999/xlink">
    <!-- Generator: Sketch 50.2 (55047) - http://www.bohemiancoding.com/sketch -->
    <title>logo</title>
    <desc>Created with Sketch.</desc>
    <defs>
        <polygon id="path-1" points="0 0.02105 14.5173 0.02105 14.5173 14.53855 0 14.53855"></polygon>
    </defs>
    <g id="Page-1" stroke="none" stroke-width="1" fill="none" fill-rule="evenodd">
        <g id="RVI-001" transform="translate(-24.000000, -32.000000)">
            <g id="Lateral-menu">
                <g id="logo" transform="translate(24.000000, 32.000000)">
                    <path d="M28.9137248,15 C28.3175478,8.69312898 23.306871,3.68245221 17,3.08627519 L17.2913725,0 C25.0778371,0.736180472 31.2638195,6.92216291 32,14.7086275 L28.9137248,15 Z" id="Fill-1" fill="#FFFFFF"></path>
                    <g id="Group-5">
                        <mask id="mask-2" fill="white">
                            <use xlink:href="#path-1"></use>
                        </mask>
                        <g id="Clip-4"></g>
                        <path d="M2.9868,14.53855 L-0.0002,14.25655 C0.7123,6.72055 6.6993,0.73355 14.2353,0.02105 L14.5173,3.00805 C8.4133,3.58505 3.5638,8.43455 2.9868,14.53855" id="Fill-3" fill="#FFFFFF" mask="url(#mask-2)"></path>
                    </g>
                    <path d="M14.7086175,32 C6.92188469,31.2638195 0.736205828,25.0783537 0,17.2918891 L3.08586485,17 C3.68206241,23.3073876 8.69291176,28.3180644 15,28.9137248 L14.7086175,32 Z" id="Fill-6" fill="#FFFFFF"></path>
                    <path d="M17.2913825,32 L17,28.9137248 C23.3070882,28.3180644 28.3179376,23.3073876 28.9141352,17 L32,17.2918891 C31.2637942,25.0783537 25.0781153,31.2638195 17.2913825,32" id="Fill-8" fill="#FFFFFF"></path>
                    <path d="M15.9997537,8.7588925 C12.0071437,8.7588925 8.75846779,12.0074884 8.75846779,16 C8.75846779,19.9925116 12.0071437,23.2411075 15.9997537,23.2411075 C19.9923636,23.2411075 23.2410395,19.9925116 23.2410395,16 C23.2410395,12.0074884 19.9923636,8.7588925 15.9997537,8.7588925 M15.9997537,26 C10.4857741,26 6,21.5138437 6,16 C6,10.4861563 10.4857741,6 15.9997537,6 C21.5137332,6 26,10.4861563 26,16 C26,21.5138437 21.5137332,26 15.9997537,26" id="Fill-10" fill="#0183C2"></path>
                    <g id="Group" transform="translate(40.000000, 5.000000)" fill="#FFFFFF">
                        <path d="M4.22571327,10.9199473 L9.63502397,10.9199473 C12.5089067,10.9199473 14.5034434,9.54304012 14.5034434,7.30118666 C14.5034434,5.05933321 12.5089067,3.68242607 9.63502397,3.68242607 L4.22571327,3.68242607 L4.22571327,10.9199473 Z M14.199192,22 L8.7222699,14.6023733 L4.22571327,14.6023733 L4.22571327,22 L0,22 L0,0 L10.1087016,0 C15.0781404,0 18.7971658,3.00998305 18.7971658,7.30118666 C18.7971658,10.6313807 16.5317857,13.1934451 13.1850208,14.1864758 L19,22 L14.199192,22 Z" id="Fill-12"></path>
                        <polygon id="Fill-14" points="44 0 34.742167 22 30.2582125 22 21 0 25.4516986 0 32.4842515 16.6841213 39.516425 0"></polygon>
                        <polygon id="Fill-16" points="48 22 52 22 52 0 48 0"></polygon>
                    </g>
                </g>
            </g>
        </g>
    </g>
</svg>